<svg xmlns="http://www.w3.org/2000/svg" viewBox="0 0 16 16" width="16" height="16"><title>apartment</title><g class="nc-icon-wrapper" fill="#111111"><rect x="5" y="4" width="2" height="2" data-color="color-2"/><rect x="5" y="8" width="2" height="2" data-color="color-2"/><rect x="9" y="4" width="2" height="2" data-color="color-2"/><rect x="9" y="8" width="2" height="2" data-color="color-2"/><path d="M14.165,1.014l-6-1a1.015,1.015,0,0,0-.33,0l-6,1A1,1,0,0,0,1,2V15a1,1,0,0,0,1,1H14a1,1,0,0,0,1-1V2A1,1,0,0,0,14.165,1.014ZM13,14H9V12H7v2H3V2.847l5-.833,5,.833Z" fill="#111111"/></g></svg>