<svg xmlns="http://www.w3.org/2000/svg" viewBox="0 0 16 16" width="16" height="16"><g class="nc-icon-wrapper"><path d="M3.66,6.25A2.25,2.25,0,0,1,8,5.51l2.75-2.75L9.47,1.45a.4.4,0,0,0-.56,0l-.64.64a4.45,4.45,0,0,0-1.08-.44V.74a.39.39,0,0,0-.4-.4H5a.39.39,0,0,0-.41.4v.91a4.45,4.45,0,0,0-1.08.44l-.64-.64a.39.39,0,0,0-.55,0L1.13,2.68a.4.4,0,0,0,0,.56l.64.64A4.38,4.38,0,0,0,1.33,5H.4a.4.4,0,0,0-.4.41V7.09a.39.39,0,0,0,.4.41h.91a4.81,4.81,0,0,0,.44,1.07l-.64.64a.39.39,0,0,0,0,.56l1.32,1.31L5.17,8.34A2.16,2.16,0,0,1,3.66,6.25Z"/><rect x="5.15" y="7.2" width="8.49" height="3.66" transform="translate(-3.63 9.29) rotate(-45)"/><path d="M15.83,4.41,14,2.6a.53.53,0,0,0-.77,0L12.08,3.77l2.59,2.6,1.18-1.18A.56.56,0,0,0,15.83,4.41Z"/><path d="M3.47,12.38a.65.65,0,0,0-.15.27L2.78,15a.56.56,0,0,0,.66.66l2.34-.54A.56.56,0,0,0,6.05,15l.67-.67L4.14,11.71Z"/></g></svg>
