<svg id="Layer_1" data-name="Layer 1" xmlns="http://www.w3.org/2000/svg" viewBox="0 0 16 16"><defs><style>.cls-1{fill:#010101;}</style></defs><path class="cls-1" d="M3.66,6.24A2.25,2.25,0,0,1,8,5.5l2.75-2.75L9.47,1.44a.4.4,0,0,0-.56,0l-.64.64a4.62,4.62,0,0,0-1.08-.44V.73a.39.39,0,0,0-.38-.4H5A.4.4,0,0,0,4.59.7v.94a4.62,4.62,0,0,0-1.08.44l-.64-.64a.39.39,0,0,0-.55,0L1.13,2.67a.4.4,0,0,0,0,.56l.64.64A4.66,4.66,0,0,0,1.33,5H.4a.4.4,0,0,0-.4.4H0V7.08a.39.39,0,0,0,.37.41h.94a4.38,4.38,0,0,0,.44,1.07l-.64.64a.4.4,0,0,0,0,.56h0l1.32,1.31L5.17,8.33A2.15,2.15,0,0,1,3.66,6.24Z"/><rect class="cls-1" x="5.15" y="7.2" width="8.49" height="3.66" transform="translate(-3.63 9.29) rotate(-45)"/><path class="cls-1" d="M15.83,4.4,14,2.59a.53.53,0,0,0-.75,0l0,0L12.08,3.76l2.59,2.6,1.18-1.18A.55.55,0,0,0,15.83,4.4Z"/><path class="cls-1" d="M3.47,12.37a.72.72,0,0,0-.15.27L2.78,15a.56.56,0,0,0,.44.66.41.41,0,0,0,.22,0l2.34-.54A.47.47,0,0,0,6.05,15l.67-.67L4.14,11.7Z"/></svg>
