<svg xmlns="http://www.w3.org/2000/svg" viewBox="0 0 16 16" width="16" height="16"><title>construction sign</title><g class="nc-icon-wrapper" fill="#111111"><path d="M15,0H1A1,1,0,0,0,0,1V8A1,1,0,0,0,1,9H15a1,1,0,0,0,1-1V1A1,1,0,0,0,15,0ZM2,7V3.414L5.586,7ZM8.414,7l-5-5H7.586l5,5ZM14,5.586,10.414,2H14Z" data-color="color-2"/><polygon points="4 10 2 10 2 14 0 14 0 16 6 16 6 14 4 14 4 10" fill="#111111"/><polygon points="14 10 12 10 12 14 10 14 10 16 16 16 16 14 14 14 14 10" fill="#111111"/></g></svg>