<svg xmlns="http://www.w3.org/2000/svg" viewBox="0 0 16 16" width="16" height="16"><g class="nc-icon-wrapper"><path d="M6.75,13.63a11.22,11.22,0,0,1-1.7-.93V16H7.78a.32.32,0,0,0,.32-.31A.33.33,0,0,0,8,15.5Z"/><path d="M1.43,15.5a.33.33,0,0,0,0,.33.34.34,0,0,0,.28.17H4.42V12.23A5.71,5.71,0,0,1,4,11.84Z"/><path d="M11,9.14l1.47-4.95A2.11,2.11,0,1,0,13.08,0,2.09,2.09,0,0,0,10.7,1.8a2.41,2.41,0,0,0,0,.6L5.76,3.89,2.31.41A.32.32,0,0,0,2,.33a.3.3,0,0,0-.23.19A9.79,9.79,0,0,0,4,11a9.7,9.7,0,0,0,6.86,2.85,9.51,9.51,0,0,0,3.53-.68.3.3,0,0,0,.2-.23.32.32,0,0,0-.09-.29ZM10.88,3a2,2,0,0,0,1,1L10.48,8.63,6.28,4.4Z"/></g></svg>
