<svg id="Layer_1" data-name="Layer 1" xmlns="http://www.w3.org/2000/svg" viewBox="0 0 16 16"><defs><style>.cls-1{fill:#010101;}</style></defs><path class="cls-1" d="M6.75,13.65a11.22,11.22,0,0,1-1.7-.93V16H7.78a.33.33,0,0,0,.32-.31.35.35,0,0,0-.1-.19Z"/><path class="cls-1" d="M1.43,15.52a.32.32,0,0,0,0,.33.33.33,0,0,0,.28.17H4.42V12.25A3.88,3.88,0,0,1,4,11.86Z"/><path class="cls-1" d="M14.87,2.42a2.11,2.11,0,0,0-4.17-.64v0a2,2,0,0,0,0,.6L5.76,3.91,2.31.43A.32.32,0,0,0,2,.35a.3.3,0,0,0-.23.19A9.79,9.79,0,0,0,4,11a9.7,9.7,0,0,0,6.86,2.85,9.47,9.47,0,0,0,3.53-.68.3.3,0,0,0,.2-.23.32.32,0,0,0-.09-.29L11,9.16l1.47-4.95A2.11,2.11,0,0,0,14.87,2.42ZM10.48,8.65,6.28,4.42,10.88,3a2,2,0,0,0,1,1Z"/></svg>
