<svg width="17" height="17" viewBox="0 0 17 17" fill="none" xmlns="http://www.w3.org/2000/svg">
  <path d="M15.6188 1.37389C15.4574 1.2122 15.2657 1.08392 15.0547 0.996399C14.8436 0.908879 14.6174 0.863831 14.389 0.863831C14.1606 0.863831 13.9344 0.908879 13.7234 0.996399C13.5123 1.08392 13.3206 1.2122 13.1592 1.37389L11.3167 3.21737L13.7719 5.69563L15.6188 3.85216C15.7831 3.69033 15.9135 3.49744 16.0025 3.28471C16.0915 3.07198 16.1374 2.84365 16.1374 2.61302C16.1374 2.3824 16.0915 2.15407 16.0025 1.94134C15.9135 1.72861 15.7831 1.53572 15.6188 1.37389Z" fill="currentColor"/>
  <path d="M10.0901 2.81904C9.87018 2.62171 9.58286 2.51655 9.28761 2.52535C8.99236 2.53415 8.7118 2.65623 8.50405 2.86631C8.29629 3.07639 8.17726 3.35837 8.1716 3.65385C8.16594 3.94933 8.27409 4.23566 8.47364 4.45355L12.5406 8.52256C12.6475 8.62951 12.7744 8.71434 12.914 8.77222C13.0537 8.8301 13.2034 8.85989 13.3546 8.85989C13.5057 8.85989 13.6554 8.8301 13.7951 8.77222C13.9347 8.71434 14.0616 8.62951 14.1685 8.52256C14.2754 8.41562 14.3602 8.28865 14.4181 8.14892C14.4759 8.00919 14.5057 7.85943 14.5057 7.70819C14.5057 7.55694 14.4759 7.40718 14.4181 7.26745C14.3602 7.12772 14.2754 7.00075 14.1685 6.89381L10.0901 2.81904Z" fill="currentColor"/>
  <path d="M2.04314 12.4956C1.76768 12.7706 1.54912 13.0972 1.39998 13.4568C1.25085 13.8164 1.17406 14.2019 1.17401 14.5913L0.252743 15.5174C0.131928 15.639 0.0497369 15.7936 0.016502 15.9618C-0.0167329 16.13 0.000471449 16.3042 0.0659527 16.4627C0.131434 16.6211 0.24227 16.7567 0.384526 16.8523C0.526783 16.9479 0.694111 16.9992 0.865476 17C1.35219 17 1.53036 16.6956 2.40383 15.8217C3.19095 15.8213 3.94579 15.5086 4.50276 14.9521L11.3167 8.13475L8.85708 5.69562L2.04314 12.4956Z" fill="currentColor"/>
</svg>
