<svg width="16" height="16" viewBox="0 0 16 16" fill="none" xmlns="http://www.w3.org/2000/svg">
  <path d="M13.5501 0.44254C13.41 0.302248 13.2437 0.190953 13.0606 0.115019C12.8776 0.0390846 12.6813 6.25908e-08 12.4832 5.82592e-08C12.285 5.39275e-08 12.0888 0.0390845 11.9057 0.115019C11.7226 0.190953 11.5563 0.302248 11.4162 0.44254L9.81775 2.04197L11.9478 4.19215L13.5501 2.59272C13.6926 2.45232 13.8057 2.28496 13.883 2.10039C13.9602 1.91582 14 1.71773 14 1.51763C14 1.31753 13.9602 1.11944 13.883 0.934868C13.8057 0.750298 13.6926 0.582942 13.5501 0.44254Z" fill="currentColor"/>
  <path d="M8.75366 1.69635C8.5629 1.52514 8.31363 1.43391 8.05749 1.44154C7.80134 1.44918 7.55795 1.5551 7.37771 1.73737C7.19747 1.91964 7.09421 2.16429 7.08929 2.42065C7.08438 2.67701 7.17821 2.92544 7.35133 3.11448L10.8796 6.64483C10.9723 6.73761 11.0824 6.81122 11.2036 6.86143C11.3248 6.91165 11.4546 6.9375 11.5858 6.9375C11.7169 6.9375 11.8468 6.91165 11.9679 6.86143C12.0891 6.81122 12.1992 6.73761 12.2919 6.64483C12.3847 6.55204 12.4582 6.44188 12.5084 6.32065C12.5586 6.19942 12.5844 6.06948 12.5844 5.93826C12.5844 5.80704 12.5586 5.6771 12.5084 5.55587C12.4582 5.43463 12.3847 5.32448 12.2919 5.23169L8.75366 1.69635Z" fill="currentColor"/>
  <path d="M1.77252 10.0919C1.53354 10.3305 1.34394 10.6139 1.21455 10.9259C1.08517 11.2379 1.01855 11.5724 1.01852 11.9102L0.219267 12.7136C0.114454 12.8191 0.0431492 12.9533 0.0143163 13.0992C-0.0145166 13.2452 0.000409005 13.3964 0.0572172 13.5338C0.114025 13.6713 0.210181 13.7889 0.333595 13.8718C0.45701 13.9548 0.602175 13.9994 0.750843 14C1.17309 14 1.32766 13.7359 2.08544 12.9777C2.76831 12.9774 3.42317 12.7061 3.90637 12.2233L9.81779 6.30837L7.68395 4.19214L1.77252 10.0919Z" fill="currentColor"/>
</svg>
