<svg xmlns="http://www.w3.org/2000/svg" viewBox="0 0 16 16" width="16" height="16"><g class="nc-icon-wrapper"><path d="M4.05,6.2,3,5.1A11.56,11.56,0,0,0,0,8c2.75,3.75,6.55,5.15,10.1,4.25L8.8,11A4.3,4.3,0,0,1,8,11,8.07,8.07,0,0,1,2,8,8.75,8.75,0,0,1,4.05,6.2Z"/><path d="M5,7.15A3,3,0,0,0,7.85,10Z"/><path d="M16,8A10,10,0,0,0,8,3.5a8.83,8.83,0,0,0-3.15.6L.7,0,0,.7,15.3,16l.7-.7-3.85-3.85A12.12,12.12,0,0,0,16,8Zm-4.95,2.3L10,9.25A3,3,0,0,0,10.6,5.5h0A9,9,0,0,1,14.05,8,8.46,8.46,0,0,1,11.05,10.3Z"/></g></svg>
