<svg xmlns="http://www.w3.org/2000/svg" viewBox="0 0 16 16" width="16" height="16"><title>land</title><g class="nc-icon-wrapper" fill="#111111"><path d="M15,16H1a1,1,0,0,1-.895-1.447l2-4a1,1,0,1,1,1.79.894L2.618,14H13.382l-1.277-2.553a1,1,0,0,1,1.79-.894l2,4A1,1,0,0,1,15,16Z" fill="#111111"/><path d="M11,6.5a3.819,3.819,0,0,0-.728-2.262A3.493,3.493,0,0,0,10.5,3,2.784,2.784,0,0,0,8,0,2.784,2.784,0,0,0,5.5,3a3.493,3.493,0,0,0,.228,1.238A3.819,3.819,0,0,0,5,6.5,3.5,3.5,0,0,0,7,9.786V13H9V9.786A3.5,3.5,0,0,0,11,6.5Z" data-color="color-2"/></g></svg>