<svg xmlns="http://www.w3.org/2000/svg" viewBox="0 0 16 16" width="16" height="16"><g class="nc-icon-wrapper"><path d="M16,.54A.56.56,0,0,0,15.46,0C13.94-.1,9,0,5,5.55,5,5.55.69,4.45,0,9.9a.56.56,0,0,0,.59.62,9.91,9.91,0,0,0,2.66-.58.24.24,0,0,1,.33.26,1.8,1.8,0,0,0,.6,1.62,1.8,1.8,0,0,0,1.62.6.24.24,0,0,1,.26.33,9.91,9.91,0,0,0-.58,2.66A.56.56,0,0,0,6.1,16c5.45-.69,4.35-4.95,4.35-4.95C16,7.05,16.1,2.06,16,.54ZM9.32,6.68a1.78,1.78,0,0,1,0-2.77,1.8,1.8,0,0,1,2.77,0,1.74,1.74,0,0,1,0,2.77A1.72,1.72,0,0,1,9.32,6.68Z"/><path d="M4.42,12.68h0a.27.27,0,0,0-.34.11,1.74,1.74,0,0,1-1.68.81,1.74,1.74,0,0,1,.81-1.68.27.27,0,0,0,.11-.34h0A.29.29,0,0,0,3,11.4C2.35,11.46.28,11.88,1,15c3.15.69,3.57-1.38,3.63-2.06A.28.28,0,0,0,4.42,12.68Z"/></g></svg>
