<svg id="Layer_1" data-name="Layer 1" xmlns="http://www.w3.org/2000/svg" viewBox="0 0 16 16"><defs><style>.cls-1{fill:#010101;}</style></defs><path class="cls-1" d="M16,.55A.55.55,0,0,0,15.45,0C13.93-.09,9,0,5,5.56c0,0-4.31-1.1-5,4.35a.57.57,0,0,0,.5.62H.58A10,10,0,0,0,3.24,10a.24.24,0,0,1,.32.13.28.28,0,0,1,0,.13,1.81,1.81,0,0,0,.6,1.62,1.81,1.81,0,0,0,1.62.6.24.24,0,0,1,.28.2.2.2,0,0,1,0,.13,10,10,0,0,0-.58,2.66A.56.56,0,0,0,6,16h.09c5.45-.69,4.35-5,4.35-5C16,7.06,16.09,2.07,16,.55ZM9.68,7.05a1.58,1.58,0,0,1-.37-.36,1.79,1.79,0,0,1-.26-2.51,1.6,1.6,0,0,1,.26-.26,1.81,1.81,0,0,1,2.54-.24,1.75,1.75,0,0,1,.23.24,1.74,1.74,0,0,1,0,2.77A1.71,1.71,0,0,1,9.68,7.05Z"/><path class="cls-1" d="M4.41,12.69a.26.26,0,0,0-.34.11,1.74,1.74,0,0,1-1.68.81,1.74,1.74,0,0,1,.81-1.68.26.26,0,0,0,.11-.34A.28.28,0,0,0,3,11.41c-.65.06-2.72.48-2,3.6,3.15.69,3.57-1.38,3.63-2.06A.27.27,0,0,0,4.41,12.69Z"/></svg>
