<svg xmlns="http://www.w3.org/2000/svg" viewBox="0 0 16 16" width="16" height="16"><g class="nc-icon-wrapper"><path d="M15.561.172a1,1,0,0,0-.932-.1L10.046,1.9l-3.6-1.8A1,1,0,0,0,5.629.071l-5,2A1,1,0,0,0,0,3V15a1,1,0,0,0,1.371.929L5.954,14.1l1.6.8.895-1.789-2-1a1,1,0,0,0-.818-.034L2,13.523V3.677L5.954,2.1l3.6,1.8a.99.99,0,0,0,.818.034L14,2.477V8h2V1A1,1,0,0,0,15.561.172Z"/> <polygon id="color" points="14 10 12 10 12 12 10 12 10 14 12 14 12 16 14 16 14 14 16 14 16 12 14 12 14 10" data-color="color-2"/></g></svg>