<svg xmlns="http://www.w3.org/2000/svg" viewBox="0 0 16 16" width="16" height="16"><g class="nc-icon-wrapper"><path d="M15.561.172a1,1,0,0,0-.932-.1L10.046,1.9l-3.6-1.8A1,1,0,0,0,5.629.071l-5,2A1,1,0,0,0,0,3V15a1,1,0,0,0,1.371.929L5.954,14.1,6,14.119V12a1,1,0,0,0-.371.071L2,13.523V3.677L5.954,2.1l3.6,1.8a.99.99,0,0,0,.818.034L14,2.477V5.428a5.017,5.017,0,0,1,2,1.588V1A1,1,0,0,0,15.561.172Z"/> <path id="color" d="M15,11V10a3,3,0,0,0-6,0v1a1,1,0,0,0-1,1v3a1,1,0,0,0,1,1h6a1,1,0,0,0,1-1V12A1,1,0,0,0,15,11Zm-2,0H11V10a1,1,0,0,1,2,0Z" data-color="color-2"/></g></svg>