<svg id="Layer_1" data-name="Layer 1" xmlns="http://www.w3.org/2000/svg" viewBox="0 0 616.92 206.1"><defs><style>.cls-1{fill:#fff;}.cls-2{fill:#c5cdd5;}.cls-3,.cls-6{fill:#484f5c;}.cls-4{fill:none;stroke:#c5cdd5;stroke-width:3px;}.cls-4,.cls-5{stroke-miterlimit:10;}.cls-5{fill:#fafbfc;stroke:#cad0d8;}.cls-6{font-size:8px;font-family:Helvetica-Bold, Helvetica;font-weight:700;}.cls-7{letter-spacing:-0.02em;}</style></defs><rect class="cls-1" x="372.13" width="119.94" height="206.1"/><path class="cls-2" d="M489.07,0h-2V.5h2V0Zm-3,0h-2V.5h2V0Zm-3,0h-2V.5h2V0Zm-3,0h-2V.5h2V0Zm-3,0h-2V.5h2V0Zm-3,0h-2V.5h2V0Zm-3,0h-2V.5h2V0Zm-3,0h-2V.5h2V0Zm-3,0h-2V.5h2V0Zm-3,0h-2V.5h2V0Zm-3,0h-2V.5h2V0Zm-3,0h-2V.5h2V0Zm-3,0h-2V.5h2V0Zm-3,0h-2V.5h2V0Zm-3,0h-2V.5h2V0Zm-3,0h-2V.5h2V0Zm-3,0h-2V.5h2V0Zm-3,0h-2V.5h2V0Zm-3,0h-2V.5h2V0Zm-3,0h-2V.5h2V0Zm-3,0h-2V.5h2V0Zm-3,0h-2V.5h2V0Zm-3,0h-2V.5h2V0Zm-3,0h-2V.5h2V0Zm-3,0h-2V.5h2V0Zm-3,0h-2V.5h2V0Zm-3,0h-2V.5h2V0Zm-3,0h-2V.5h2V0Zm-3,0h-2V.5h2V0Zm-3,0h-2V.5h2V0Zm-3,0h-2V.5h2V0Zm-3,0h-2V.5h2V0Zm-3,0h-2V.5h2V0Zm-3,0h-2V.5h2V0Zm-3,0h-2V.5h2V0Zm-3,0h-2V.5h2V0Zm-3,0h-2V.5h2V0Zm-3,0h-2V.5h2V0Zm-3,0h-2V.5h2V0Zm-2.44.06h-.5v2h.5v-2Zm0,3h-.5v2h.5v-2Zm0,3h-.5v2h.5v-2Zm0,3h-.5v2h.5v-2Zm0,3h-.5v2h.5v-2Zm0,3h-.5v2h.5v-2Zm0,3h-.5v2h.5v-2Zm0,3h-.5v2h.5v-2Zm0,3h-.5v2h.5v-2Zm0,3h-.5v2h.5v-2Zm0,3h-.5v2h.5v-2Zm0,3h-.5v2h.5v-2Zm0,3h-.5v2h.5v-2Zm0,3h-.5v2h.5v-2Zm0,3h-.5v2h.5v-2Zm0,3h-.5v2h.5v-2Zm0,3h-.5v2h.5v-2Zm0,3h-.5v2h.5v-2Zm0,3h-.5v2h.5v-2Zm0,3h-.5v2h.5v-2Zm0,3h-.5v2h.5v-2Zm0,3h-.5v2h.5v-2Zm0,3h-.5v2h.5v-2Zm0,3h-.5v2h.5v-2Zm0,3h-.5v2h.5v-2Zm0,3h-.5v2h.5v-2Zm0,3h-.5v2h.5v-2Zm0,3h-.5v2h.5v-2Zm0,3h-.5v2h.5v-2Zm0,3h-.5v2h.5v-2Zm0,3h-.5v2h.5v-2Zm0,3h-.5v2h.5v-2Zm0,3h-.5v2h.5v-2Zm0,3h-.5v2h.5v-2Zm0,3h-.5v2h.5v-2Zm0,3h-.5v2h.5v-2Zm0,3h-.5v2h.5v-2Zm0,3h-.5v2h.5v-2Zm0,3h-.5v2h.5v-2Zm0,3h-.5v2h.5v-2Zm0,3h-.5v2h.5v-2Zm0,3h-.5v2h.5v-2Zm0,3h-.5v2h.5v-2Zm0,3h-.5v2h.5v-2Zm0,3h-.5v2h.5v-2Zm0,3h-.5v2h.5v-2Zm0,3h-.5v2h.5v-2Zm0,3h-.5v2h.5v-2Zm0,3h-.5v2h.5v-2Zm0,3h-.5v2h.5v-2Zm0,3h-.5v2h.5v-2Zm0,3h-.5v2h.5v-2Zm0,3h-.5v2h.5v-2Zm0,3h-.5v2h.5v-2Zm0,3h-.5v2h.5v-2Zm0,3h-.5v2h.5v-2Zm0,3h-.5v2h.5v-2Zm0,3h-.5v2h.5v-2Zm0,3h-.5v2h.5v-2Zm0,3h-.5v2h.5v-2Zm0,3h-.5v2h.5v-2Zm0,3h-.5v2h.5v-2Zm0,3h-.5v2h.5v-2Zm0,3h-.5v2h.5v-2Zm0,3h-.5v2h.5v-2Zm0,3h-.5v2h.5v-2Zm0,3h-.5v2h.5v-2Zm0,3h-.5v2h.5v-2Zm0,3h-.5v2h.5v-2Zm2.45,1.54h-2v.5h2v-.5Zm3,0h-2v.5h2v-.5Zm3,0h-2v.5h2v-.5Zm3,0h-2v.5h2v-.5Zm3,0h-2v.5h2v-.5Zm3,0h-2v.5h2v-.5Zm3,0h-2v.5h2v-.5Zm3,0h-2v.5h2v-.5Zm3,0h-2v.5h2v-.5Zm3,0h-2v.5h2v-.5Zm3,0h-2v.5h2v-.5Zm3,0h-2v.5h2v-.5Zm3,0h-2v.5h2v-.5Zm3,0h-2v.5h2v-.5Zm3,0h-2v.5h2v-.5Zm3,0h-2v.5h2v-.5Zm3,0h-2v.5h2v-.5Zm3,0h-2v.5h2v-.5Zm3,0h-2v.5h2v-.5Zm3,0h-2v.5h2v-.5Zm3,0h-2v.5h2v-.5Zm3,0h-2v.5h2v-.5Zm3,0h-2v.5h2v-.5Zm3,0h-2v.5h2v-.5Zm3,0h-2v.5h2v-.5Zm3,0h-2v.5h2v-.5Zm3,0h-2v.5h2v-.5Zm3,0h-2v.5h2v-.5Zm3,0h-2v.5h2v-.5Zm3,0h-2v.5h2v-.5Zm3,0h-2v.5h2v-.5Zm3,0h-2v.5h2v-.5Zm3,0h-2v.5h2v-.5Zm3,0h-2v.5h2v-.5Zm3,0h-2v.5h2v-.5Zm3,0h-2v.5h2v-.5Zm3,0h-2v.5h2v-.5Zm3,0h-2v.5h2v-.5Zm3,0h-2v.5h2v-.5Zm3,0h-2v.5h2v-.5Zm0-2.51h-.5v2h.5v-2Zm0-3h-.5v2h.5v-2Zm0-3h-.5v2h.5v-2Zm0-3h-.5v2h.5v-2Zm0-3h-.5v2h.5v-2Zm0-3h-.5v2h.5v-2Zm0-3h-.5v2h.5v-2Zm0-3h-.5v2h.5v-2Zm0-3h-.5v2h.5v-2Zm0-3h-.5v2h.5v-2Zm0-3h-.5v2h.5v-2Zm0-3h-.5v2h.5v-2Zm0-3h-.5v2h.5v-2Zm0-3h-.5v2h.5v-2Zm0-3h-.5v2h.5v-2Zm0-3h-.5v2h.5v-2Zm0-3h-.5v2h.5v-2Zm0-3h-.5v2h.5v-2Zm0-3h-.5v2h.5v-2Zm0-3h-.5v2h.5v-2Zm0-3h-.5v2h.5v-2Zm0-3h-.5v2h.5v-2Zm0-3h-.5v2h.5v-2Zm0-3h-.5v2h.5v-2Zm0-3h-.5v2h.5v-2Zm0-3h-.5v2h.5v-2Zm0-3h-.5v2h.5v-2Zm0-3h-.5v2h.5v-2Zm0-3h-.5v2h.5v-2Zm0-3h-.5v2h.5v-2Zm0-3h-.5v2h.5v-2Zm0-3h-.5v2h.5v-2Zm0-3h-.5v2h.5v-2Zm0-3h-.5v2h.5v-2Zm0-3h-.5v2h.5v-2Zm0-3h-.5v2h.5v-2Zm0-3h-.5v2h.5v-2Zm0-3h-.5v2h.5v-2Zm0-3h-.5v2h.5v-2Zm0-3h-.5v2h.5v-2Zm0-3h-.5v2h.5v-2Zm0-3h-.5v2h.5v-2Zm0-3h-.5v2h.5v-2Zm0-3h-.5v2h.5v-2Zm0-3h-.5v2h.5v-2Zm0-3h-.5v2h.5v-2Zm0-3h-.5v2h.5v-2Zm0-3h-.5v2h.5v-2Zm0-3h-.5v2h.5v-2Zm0-3h-.5v2h.5v-2Zm0-3h-.5v2h.5v-2Zm0-3h-.5v2h.5v-2Zm0-3h-.5v2h.5v-2Zm0-3h-.5v2h.5v-2Zm0-3h-.5v2h.5v-2Zm0-3h-.5v2h.5v-2Zm0-3h-.5v2h.5v-2Zm0-3h-.5v2h.5v-2Zm0-3h-.5v2h.5v-2Zm0-3h-.5v2h.5v-2Zm0-3h-.5v2h.5v-2Zm0-3h-.5v2h.5v-2Zm0-3h-.5v2h.5v-2Zm0-3h-.5v2h.5v-2Zm0-3h-.5v2h.5v-2Zm0-3h-.5v2h.5v-2Zm0-3h-.5v2h.5v-2Zm0-3h-.5v2h.5v-2Zm0-2.09h-2V.5h1.5v.59h.5V0Z"/><rect class="cls-1" x="248.15" width="119.94" height="206.1"/><path class="cls-2" d="M365.1,0h-2V.5h2V0Zm-3,0h-2V.5h2V0Zm-3,0h-2V.5h2V0Zm-3,0h-2V.5h2V0Zm-3,0h-2V.5h2V0Zm-3,0h-2V.5h2V0Zm-3,0h-2V.5h2V0Zm-3,0h-2V.5h2V0Zm-3,0h-2V.5h2V0Zm-3,0h-2V.5h2V0Zm-3,0h-2V.5h2V0Zm-3,0h-2V.5h2V0Zm-3,0h-2V.5h2V0Zm-3,0h-2V.5h2V0Zm-3,0h-2V.5h2V0Zm-3,0h-2V.5h2V0Zm-3,0h-2V.5h2V0Zm-3,0h-2V.5h2V0Zm-3,0h-2V.5h2V0Zm-3,0h-2V.5h2V0Zm-3,0h-2V.5h2V0Zm-3,0h-2V.5h2V0Zm-3,0h-2V.5h2V0Zm-3,0h-2V.5h2V0Zm-3,0h-2V.5h2V0Zm-3,0h-2V.5h2V0Zm-3,0h-2V.5h2V0Zm-3,0h-2V.5h2V0Zm-3,0h-2V.5h2V0Zm-3,0h-2V.5h2V0Zm-3,0h-2V.5h2V0Zm-3,0h-2V.5h2V0Zm-3,0h-2V.5h2V0Zm-3,0h-2V.5h2V0Zm-3,0h-2V.5h2V0Zm-3,0h-2V.5h2V0Zm-3,0h-2V.5h2V0Zm-3,0h-2V.5h2V0Zm-3,0h-2V.5h2V0Zm-2.45.06h-.5v2h.5v-2Zm0,3h-.5v2h.5v-2Zm0,3h-.5v2h.5v-2Zm0,3h-.5v2h.5v-2Zm0,3h-.5v2h.5v-2Zm0,3h-.5v2h.5v-2Zm0,3h-.5v2h.5v-2Zm0,3h-.5v2h.5v-2Zm0,3h-.5v2h.5v-2Zm0,3h-.5v2h.5v-2Zm0,3h-.5v2h.5v-2Zm0,3h-.5v2h.5v-2Zm0,3h-.5v2h.5v-2Zm0,3h-.5v2h.5v-2Zm0,3h-.5v2h.5v-2Zm0,3h-.5v2h.5v-2Zm0,3h-.5v2h.5v-2Zm0,3h-.5v2h.5v-2Zm0,3h-.5v2h.5v-2Zm0,3h-.5v2h.5v-2Zm0,3h-.5v2h.5v-2Zm0,3h-.5v2h.5v-2Zm0,3h-.5v2h.5v-2Zm0,3h-.5v2h.5v-2Zm0,3h-.5v2h.5v-2Zm0,3h-.5v2h.5v-2Zm0,3h-.5v2h.5v-2Zm0,3h-.5v2h.5v-2Zm0,3h-.5v2h.5v-2Zm0,3h-.5v2h.5v-2Zm0,3h-.5v2h.5v-2Zm0,3h-.5v2h.5v-2Zm0,3h-.5v2h.5v-2Zm0,3h-.5v2h.5v-2Zm0,3h-.5v2h.5v-2Zm0,3h-.5v2h.5v-2Zm0,3h-.5v2h.5v-2Zm0,3h-.5v2h.5v-2Zm0,3h-.5v2h.5v-2Zm0,3h-.5v2h.5v-2Zm0,3h-.5v2h.5v-2Zm0,3h-.5v2h.5v-2Zm0,3h-.5v2h.5v-2Zm0,3h-.5v2h.5v-2Zm0,3h-.5v2h.5v-2Zm0,3h-.5v2h.5v-2Zm0,3h-.5v2h.5v-2Zm0,3h-.5v2h.5v-2Zm0,3h-.5v2h.5v-2Zm0,3h-.5v2h.5v-2Zm0,3h-.5v2h.5v-2Zm0,3h-.5v2h.5v-2Zm0,3h-.5v2h.5v-2Zm0,3h-.5v2h.5v-2Zm0,3h-.5v2h.5v-2Zm0,3h-.5v2h.5v-2Zm0,3h-.5v2h.5v-2Zm0,3h-.5v2h.5v-2Zm0,3h-.5v2h.5v-2Zm0,3h-.5v2h.5v-2Zm0,3h-.5v2h.5v-2Zm0,3h-.5v2h.5v-2Zm0,3h-.5v2h.5v-2Zm0,3h-.5v2h.5v-2Zm0,3h-.5v2h.5v-2Zm0,3h-.5v2h.5v-2Zm0,3h-.5v2h.5v-2Zm0,3h-.5v2h.5v-2Zm0,3h-.5v2h.5v-2Zm2.46,1.54h-2v.5h2v-.5Zm3,0h-2v.5h2v-.5Zm3,0h-2v.5h2v-.5Zm3,0h-2v.5h2v-.5Zm3,0h-2v.5h2v-.5Zm3,0h-2v.5h2v-.5Zm3,0h-2v.5h2v-.5Zm3,0h-2v.5h2v-.5Zm3,0h-2v.5h2v-.5Zm3,0h-2v.5h2v-.5Zm3,0h-2v.5h2v-.5Zm3,0h-2v.5h2v-.5Zm3,0h-2v.5h2v-.5Zm3,0h-2v.5h2v-.5Zm3,0h-2v.5h2v-.5Zm3,0h-2v.5h2v-.5Zm3,0h-2v.5h2v-.5Zm3,0h-2v.5h2v-.5Zm3,0h-2v.5h2v-.5Zm3,0h-2v.5h2v-.5Zm3,0h-2v.5h2v-.5Zm3,0h-2v.5h2v-.5Zm3,0h-2v.5h2v-.5Zm3,0h-2v.5h2v-.5Zm3,0h-2v.5h2v-.5Zm3,0h-2v.5h2v-.5Zm3,0h-2v.5h2v-.5Zm3,0h-2v.5h2v-.5Zm3,0h-2v.5h2v-.5Zm3,0h-2v.5h2v-.5Zm3,0h-2v.5h2v-.5Zm3,0h-2v.5h2v-.5Zm3,0h-2v.5h2v-.5Zm3,0h-2v.5h2v-.5Zm3,0h-2v.5h2v-.5Zm3,0h-2v.5h2v-.5Zm3,0h-2v.5h2v-.5Zm3,0h-2v.5h2v-.5Zm3,0h-2v.5h2v-.5Zm3,0h-2v.5h2v-.5Zm0-2.51h-.5v2h.5v-2Zm0-3h-.5v2h.5v-2Zm0-3h-.5v2h.5v-2Zm0-3h-.5v2h.5v-2Zm0-3h-.5v2h.5v-2Zm0-3h-.5v2h.5v-2Zm0-3h-.5v2h.5v-2Zm0-3h-.5v2h.5v-2Zm0-3h-.5v2h.5v-2Zm0-3h-.5v2h.5v-2Zm0-3h-.5v2h.5v-2Zm0-3h-.5v2h.5v-2Zm0-3h-.5v2h.5v-2Zm0-3h-.5v2h.5v-2Zm0-3h-.5v2h.5v-2Zm0-3h-.5v2h.5v-2Zm0-3h-.5v2h.5v-2Zm0-3h-.5v2h.5v-2Zm0-3h-.5v2h.5v-2Zm0-3h-.5v2h.5v-2Zm0-3h-.5v2h.5v-2Zm0-3h-.5v2h.5v-2Zm0-3h-.5v2h.5v-2Zm0-3h-.5v2h.5v-2Zm0-3h-.5v2h.5v-2Zm0-3h-.5v2h.5v-2Zm0-3h-.5v2h.5v-2Zm0-3h-.5v2h.5v-2Zm0-3h-.5v2h.5v-2Zm0-3h-.5v2h.5v-2Zm0-3h-.5v2h.5v-2Zm0-3h-.5v2h.5v-2Zm0-3h-.5v2h.5v-2Zm0-3h-.5v2h.5v-2Zm0-3h-.5v2h.5v-2Zm0-3h-.5v2h.5v-2Zm0-3h-.5v2h.5v-2Zm0-3h-.5v2h.5v-2Zm0-3h-.5v2h.5v-2Zm0-3h-.5v2h.5v-2Zm0-3h-.5v2h.5v-2Zm0-3h-.5v2h.5v-2Zm0-3h-.5v2h.5v-2Zm0-3h-.5v2h.5v-2Zm0-3h-.5v2h.5v-2Zm0-3h-.5v2h.5v-2Zm0-3h-.5v2h.5v-2Zm0-3h-.5v2h.5v-2Zm0-3h-.5v2h.5v-2Zm0-3h-.5v2h.5v-2Zm0-3h-.5v2h.5v-2Zm0-3h-.5v2h.5v-2Zm0-3h-.5v2h.5v-2Zm0-3h-.5v2h.5v-2Zm0-3h-.5v2h.5v-2Zm0-3h-.5v2h.5v-2Zm0-3h-.5v2h.5v-2Zm0-3h-.5v2h.5v-2Zm0-3h-.5v2h.5v-2Zm0-3h-.5v2h.5v-2Zm0-3h-.5v2h.5v-2Zm0-3h-.5v2h.5v-2Zm0-3h-.5v2h.5v-2Zm0-3h-.5v2h.5v-2Zm0-3h-.5v2h.5v-2Zm0-3h-.5v2h.5v-2Zm0-3h-.5v2h.5v-2Zm0-3h-.5v2h.5v-2Zm0-2.09h-2V.5h1.5v.59h.5V0Z"/><rect class="cls-1" x="124.18" width="119.94" height="206.1"/><path class="cls-3" d="M241.12,0h-2V.5h2V0Zm-3,0h-2V.5h2V0Zm-3,0h-2V.5h2V0Zm-3,0h-2V.5h2V0Zm-3,0h-2V.5h2V0Zm-3,0h-2V.5h2V0Zm-3,0h-2V.5h2V0Zm-3,0h-2V.5h2V0Zm-3,0h-2V.5h2V0Zm-3,0h-2V.5h2V0Zm-3,0h-2V.5h2V0Zm-3,0h-2V.5h2V0Zm-3,0h-2V.5h2V0Zm-3,0h-2V.5h2V0Zm-3,0h-2V.5h2V0Zm-3,0h-2V.5h2V0Zm-3,0h-2V.5h2V0Zm-3,0h-2V.5h2V0Zm-3,0h-2V.5h2V0Zm-3,0h-2V.5h2V0Zm-3,0h-2V.5h2V0Zm-3,0h-2V.5h2V0Zm-3,0h-2V.5h2V0Zm-3,0h-2V.5h2V0Zm-3,0h-2V.5h2V0Zm-3,0h-2V.5h2V0Zm-3,0h-2V.5h2V0Zm-3,0h-2V.5h2V0Zm-3,0h-2V.5h2V0Zm-3,0h-2V.5h2V0Zm-3,0h-2V.5h2V0Zm-3,0h-2V.5h2V0Zm-3,0h-2V.5h2V0Zm-3,0h-2V.5h2V0Zm-3,0h-2V.5h2V0Zm-3,0h-2V.5h2V0Zm-3,0h-2V.5h2V0Zm-3,0h-2V.5h2V0Zm-3,0h-2V.5h2V0Zm-2.44.06h-.5v2h.5v-2Zm0,3h-.5v2h.5v-2Zm0,3h-.5v2h.5v-2Zm0,3h-.5v2h.5v-2Zm0,3h-.5v2h.5v-2Zm0,3h-.5v2h.5v-2Zm0,3h-.5v2h.5v-2Zm0,3h-.5v2h.5v-2Zm0,3h-.5v2h.5v-2Zm0,3h-.5v2h.5v-2Zm0,3h-.5v2h.5v-2Zm0,3h-.5v2h.5v-2Zm0,3h-.5v2h.5v-2Zm0,3h-.5v2h.5v-2Zm0,3h-.5v2h.5v-2Zm0,3h-.5v2h.5v-2Zm0,3h-.5v2h.5v-2Zm0,3h-.5v2h.5v-2Zm0,3h-.5v2h.5v-2Zm0,3h-.5v2h.5v-2Zm0,3h-.5v2h.5v-2Zm0,3h-.5v2h.5v-2Zm0,3h-.5v2h.5v-2Zm0,3h-.5v2h.5v-2Zm0,3h-.5v2h.5v-2Zm0,3h-.5v2h.5v-2Zm0,3h-.5v2h.5v-2Zm0,3h-.5v2h.5v-2Zm0,3h-.5v2h.5v-2Zm0,3h-.5v2h.5v-2Zm0,3h-.5v2h.5v-2Zm0,3h-.5v2h.5v-2Zm0,3h-.5v2h.5v-2Zm0,3h-.5v2h.5v-2Zm0,3h-.5v2h.5v-2Zm0,3h-.5v2h.5v-2Zm0,3h-.5v2h.5v-2Zm0,3h-.5v2h.5v-2Zm0,3h-.5v2h.5v-2Zm0,3h-.5v2h.5v-2Zm0,3h-.5v2h.5v-2Zm0,3h-.5v2h.5v-2Zm0,3h-.5v2h.5v-2Zm0,3h-.5v2h.5v-2Zm0,3h-.5v2h.5v-2Zm0,3h-.5v2h.5v-2Zm0,3h-.5v2h.5v-2Zm0,3h-.5v2h.5v-2Zm0,3h-.5v2h.5v-2Zm0,3h-.5v2h.5v-2Zm0,3h-.5v2h.5v-2Zm0,3h-.5v2h.5v-2Zm0,3h-.5v2h.5v-2Zm0,3h-.5v2h.5v-2Zm0,3h-.5v2h.5v-2Zm0,3h-.5v2h.5v-2Zm0,3h-.5v2h.5v-2Zm0,3h-.5v2h.5v-2Zm0,3h-.5v2h.5v-2Zm0,3h-.5v2h.5v-2Zm0,3h-.5v2h.5v-2Zm0,3h-.5v2h.5v-2Zm0,3h-.5v2h.5v-2Zm0,3h-.5v2h.5v-2Zm0,3h-.5v2h.5v-2Zm0,3h-.5v2h.5v-2Zm0,3h-.5v2h.5v-2Zm0,3h-.5v2h.5v-2Zm0,3h-.5v2h.5v-2Zm2.45,1.54h-2v.5h2v-.5Zm3,0h-2v.5h2v-.5Zm3,0h-2v.5h2v-.5Zm3,0h-2v.5h2v-.5Zm3,0h-2v.5h2v-.5Zm3,0h-2v.5h2v-.5Zm3,0h-2v.5h2v-.5Zm3,0h-2v.5h2v-.5Zm3,0h-2v.5h2v-.5Zm3,0h-2v.5h2v-.5Zm3,0h-2v.5h2v-.5Zm3,0h-2v.5h2v-.5Zm3,0h-2v.5h2v-.5Zm3,0h-2v.5h2v-.5Zm3,0h-2v.5h2v-.5Zm3,0h-2v.5h2v-.5Zm3,0h-2v.5h2v-.5Zm3,0h-2v.5h2v-.5Zm3,0h-2v.5h2v-.5Zm3,0h-2v.5h2v-.5Zm3,0h-2v.5h2v-.5Zm3,0h-2v.5h2v-.5Zm3,0h-2v.5h2v-.5Zm3,0h-2v.5h2v-.5Zm3,0h-2v.5h2v-.5Zm3,0h-2v.5h2v-.5Zm3,0h-2v.5h2v-.5Zm3,0h-2v.5h2v-.5Zm3,0h-2v.5h2v-.5Zm3,0h-2v.5h2v-.5Zm3,0h-2v.5h2v-.5Zm3,0h-2v.5h2v-.5Zm3,0h-2v.5h2v-.5Zm3,0h-2v.5h2v-.5Zm3,0h-2v.5h2v-.5Zm3,0h-2v.5h2v-.5Zm3,0h-2v.5h2v-.5Zm3,0h-2v.5h2v-.5Zm3,0h-2v.5h2v-.5Zm3,0h-2v.5h2v-.5Zm0-2.51h-.5v2h.5v-2Zm0-3h-.5v2h.5v-2Zm0-3h-.5v2h.5v-2Zm0-3h-.5v2h.5v-2Zm0-3h-.5v2h.5v-2Zm0-3h-.5v2h.5v-2Zm0-3h-.5v2h.5v-2Zm0-3h-.5v2h.5v-2Zm0-3h-.5v2h.5v-2Zm0-3h-.5v2h.5v-2Zm0-3h-.5v2h.5v-2Zm0-3h-.5v2h.5v-2Zm0-3h-.5v2h.5v-2Zm0-3h-.5v2h.5v-2Zm0-3h-.5v2h.5v-2Zm0-3h-.5v2h.5v-2Zm0-3h-.5v2h.5v-2Zm0-3h-.5v2h.5v-2Zm0-3h-.5v2h.5v-2Zm0-3h-.5v2h.5v-2Zm0-3h-.5v2h.5v-2Zm0-3h-.5v2h.5v-2Zm0-3h-.5v2h.5v-2Zm0-3h-.5v2h.5v-2Zm0-3h-.5v2h.5v-2Zm0-3h-.5v2h.5v-2Zm0-3h-.5v2h.5v-2Zm0-3h-.5v2h.5v-2Zm0-3h-.5v2h.5v-2Zm0-3h-.5v2h.5v-2Zm0-3h-.5v2h.5v-2Zm0-3h-.5v2h.5v-2Zm0-3h-.5v2h.5v-2Zm0-3h-.5v2h.5v-2Zm0-3h-.5v2h.5v-2Zm0-3h-.5v2h.5v-2Zm0-3h-.5v2h.5v-2Zm0-3h-.5v2h.5v-2Zm0-3h-.5v2h.5v-2Zm0-3h-.5v2h.5v-2Zm0-3h-.5v2h.5v-2Zm0-3h-.5v2h.5v-2Zm0-3h-.5v2h.5v-2Zm0-3h-.5v2h.5v-2Zm0-3h-.5v2h.5v-2Zm0-3h-.5v2h.5v-2Zm0-3h-.5v2h.5v-2Zm0-3h-.5v2h.5v-2Zm0-3h-.5v2h.5v-2Zm0-3h-.5v2h.5v-2Zm0-3h-.5v2h.5v-2Zm0-3h-.5v2h.5v-2Zm0-3h-.5v2h.5v-2Zm0-3h-.5v2h.5v-2Zm0-3h-.5v2h.5v-2Zm0-3h-.5v2h.5v-2Zm0-3h-.5v2h.5v-2Zm0-3h-.5v2h.5v-2Zm0-3h-.5v2h.5v-2Zm0-3h-.5v2h.5v-2Zm0-3h-.5v2h.5v-2Zm0-3h-.5v2h.5v-2Zm0-3h-.5v2h.5v-2Zm0-3h-.5v2h.5v-2Zm0-3h-.5v2h.5v-2Zm0-3h-.5v2h.5v-2Zm0-3h-.5v2h.5v-2Zm0-3h-.5v2h.5v-2Zm0-2.09h-2V.5h1.5v.59h.5V0Z"/><path class="cls-4" d="M545.23,117h-3.3a11,11,0,0,1-11-11V72.53a11,11,0,0,0-11-11h-2.56"/><path class="cls-4" d="M73.35,117H252.51a11,11,0,0,0,11-11V72.53a11,11,0,0,1,11-11H277"/><line class="cls-4" x1="73.36" y1="61.55" x2="547.23" y2="61.55"/><path class="cls-4" d="M545.23,171.36h-3.3a11,11,0,0,1-11-11V100.69"/><rect class="cls-2" x="48.58" y="49.17" width="24.78" height="24.78" rx="2.94"/><rect class="cls-2" x="48.58" y="104.63" width="24.78" height="24.78" rx="2.94"/><rect class="cls-2" x="545.23" y="49.17" width="24.78" height="24.78" rx="2.94"/><rect class="cls-2" x="545.23" y="104.63" width="24.78" height="24.78" rx="2.94"/><rect class="cls-2" x="545.23" y="158.97" width="24.78" height="24.78" rx="2.94"/><circle class="cls-2" cx="308.13" cy="61.55" r="12.39"/><circle class="cls-2" cx="432.1" cy="61.55" r="12.39"/><path class="cls-3" d="M77.75,73.66c-.07-.1-2-2.31-4.39-2.31S69.05,73.56,69,73.66l-.25.28.25.29c.08.09,2,2.31,4.39,2.31s4.32-2.22,4.39-2.31l.25-.29Zm-4.39,2a5.51,5.51,0,0,1-3.46-1.71A6.88,6.88,0,0,1,72,72.53a1.67,1.67,0,0,0-.25.87,1.64,1.64,0,0,0,3.28,0,1.67,1.67,0,0,0-.25-.87,6.8,6.8,0,0,1,2.06,1.41A5.35,5.35,0,0,1,73.36,75.65Z"/><path class="cls-3" d="M62.78,57.12H55a.94.94,0,0,0-.93,1h0V65A1,1,0,0,0,55,66h7.81a1,1,0,0,0,.93-.72V57.92A1,1,0,0,0,62.78,57.12Z"/><path class="cls-3" d="M67.46,57.93a.53.53,0,0,0-.35.07l-2.5,1.23v4.65l2.48,1.22a.5.5,0,0,0,.7-.12.51.51,0,0,0,.09-.38V58.5A.5.5,0,0,0,67.46,57.93Z"/><path class="cls-3" d="M62.78,112.59H55a.94.94,0,0,0-.93,1h0v6.92a1,1,0,0,0,.92,1h7.81a1,1,0,0,0,.93-.72v-7.36A1,1,0,0,0,62.78,112.59Z"/><path class="cls-3" d="M67.46,113.39a.54.54,0,0,0-.35.08l-2.5,1.23v4.64l2.48,1.22a.5.5,0,0,0,.7-.11.52.52,0,0,0,.09-.38V114A.51.51,0,0,0,67.46,113.39Z"/><circle class="cls-5" cx="570" cy="73.94" r="6.03"/><path class="cls-3" d="M568.23,73.13l-.5-.49a5.26,5.26,0,0,0-1.33,1.3A4.28,4.28,0,0,0,571,75.85l-.59-.58a2.11,2.11,0,0,1-.36,0,3.63,3.63,0,0,1-2.72-1.35A4.22,4.22,0,0,1,568.23,73.13Z"/><path class="cls-3" d="M568.65,73.56a1.33,1.33,0,0,0,1.29,1.28Z"/><path class="cls-3" d="M573.6,73.94a4.49,4.49,0,0,0-3.6-2,3.89,3.89,0,0,0-1.41.27l-1.87-1.85-.32.32,6.89,6.88.31-.31-1.73-1.74A5.36,5.36,0,0,0,573.6,73.94Zm-2.22,1-.5-.47a1.36,1.36,0,0,0,.29-1.69h0a4.15,4.15,0,0,1,1.56,1.12A3.92,3.92,0,0,1,571.38,75Z"/><circle class="cls-5" cx="73.36" cy="73.94" r="6.03"/><path class="cls-3" d="M71.58,73.13l-.49-.49a5.11,5.11,0,0,0-1.33,1.3,4.28,4.28,0,0,0,4.55,1.91l-.59-.58a2.17,2.17,0,0,1-.36,0,3.61,3.61,0,0,1-2.72-1.35A4.4,4.4,0,0,1,71.58,73.13Z"/><path class="cls-3" d="M72,73.56a1.32,1.32,0,0,0,1.28,1.28Z"/><path class="cls-3" d="M77,73.94a4.49,4.49,0,0,0-3.6-2,4,4,0,0,0-1.42.27l-1.86-1.85-.32.32,6.89,6.88.31-.31-1.73-1.74A5.36,5.36,0,0,0,77,73.94Zm-2.23,1-.49-.47a1.36,1.36,0,0,0,.29-1.69h0a4,4,0,0,1,1.55,1.12A3.83,3.83,0,0,1,74.73,75Z"/><circle class="cls-5" cx="73.36" cy="129.41" r="6.03"/><path class="cls-3" d="M71.58,128.6l-.49-.5a5.32,5.32,0,0,0-1.33,1.31,4.28,4.28,0,0,0,4.55,1.91l-.59-.58a2.17,2.17,0,0,1-.36,0,3.61,3.61,0,0,1-2.72-1.35A3.9,3.9,0,0,1,71.58,128.6Z"/><path class="cls-3" d="M72,129a1.33,1.33,0,0,0,1.28,1.28Z"/><path class="cls-3" d="M77,129.41a4.5,4.5,0,0,0-3.6-2,4.17,4.17,0,0,0-1.42.27l-1.86-1.84-.32.32L76.65,133l.31-.32L75.23,131A5.36,5.36,0,0,0,77,129.41Zm-2.23,1-.49-.47a1.36,1.36,0,0,0,.29-1.69h0a4,4,0,0,1,1.55,1.13A3.69,3.69,0,0,1,74.73,130.44Z"/><circle class="cls-5" cx="570" cy="129.41" r="6.03"/><path class="cls-3" d="M568.23,128.6l-.5-.5a5.49,5.49,0,0,0-1.33,1.31,4.28,4.28,0,0,0,4.55,1.91l-.59-.58a2.11,2.11,0,0,1-.36,0,3.63,3.63,0,0,1-2.72-1.35A3.76,3.76,0,0,1,568.23,128.6Z"/><path class="cls-3" d="M568.65,129a1.34,1.34,0,0,0,1.29,1.28Z"/><path class="cls-3" d="M573.6,129.41a4.5,4.5,0,0,0-3.6-2,4.11,4.11,0,0,0-1.41.27l-1.87-1.84-.32.32,6.89,6.88.31-.32L571.87,131A5.36,5.36,0,0,0,573.6,129.41Zm-2.22,1-.5-.47a1.36,1.36,0,0,0,.29-1.69h0a4.07,4.07,0,0,1,1.56,1.13A3.77,3.77,0,0,1,571.38,130.44Z"/><circle class="cls-5" cx="570" cy="180.75" r="6.03"/><path class="cls-3" d="M568.23,179.94l-.5-.49a5.26,5.26,0,0,0-1.33,1.3,4.28,4.28,0,0,0,4.55,1.91l-.59-.58a2.11,2.11,0,0,1-.36,0,3.63,3.63,0,0,1-2.72-1.35A3.76,3.76,0,0,1,568.23,179.94Z"/><path class="cls-3" d="M568.65,180.37a1.33,1.33,0,0,0,1.29,1.28Z"/><path class="cls-3" d="M573.6,180.75a4.49,4.49,0,0,0-3.6-2,3.89,3.89,0,0,0-1.41.27l-1.87-1.85-.32.32,6.89,6.88.31-.31-1.73-1.74A5.36,5.36,0,0,0,573.6,180.75Zm-2.22,1-.5-.48a1.34,1.34,0,0,0,.29-1.68h0a4,4,0,0,1,1.56,1.12A3.92,3.92,0,0,1,571.38,181.79Z"/><path class="cls-3" d="M555.91,55.77a4.42,4.42,0,0,0-4.42,4.42v.07a3.68,3.68,0,0,0-2,3.34,3.76,3.76,0,0,0,3.75,3.74h9.19a3.42,3.42,0,0,0,3.4-3.4,3.51,3.51,0,0,0-2.12-3.2,1.73,1.73,0,0,0,.08-.55,2.35,2.35,0,0,0-2.38-2.38,2.19,2.19,0,0,0-1.45.48,4.4,4.4,0,0,0-4-2.52Z"/><path class="cls-3" d="M438.74,57.44l-6.46-2.77a.45.45,0,0,0-.36,0l-6.46,2.77a.46.46,0,0,0-.28.42v7.39a.46.46,0,0,0,.28.42l6.46,2.77a.58.58,0,0,0,.18,0l.15,0,1.38-.46-.29-.87-.78.25V60.94l5.54-2.38v3H439V57.86A.46.46,0,0,0,438.74,57.44ZM432.1,55.6l2.06.88-5.29,2.26-2.06-.88Zm-6,3,5.54,2.38v6.37l-5.54-2.37Zm6,1.57L430,59.25,435.33,57l2.06.88Zm6.55,2.36-2.3-.47a.61.61,0,0,0-.19,0l-2.3.47a.45.45,0,0,0-.37.45v2.64a2.31,2.31,0,0,0,1.12,2l1.41.85a.48.48,0,0,0,.24.07.48.48,0,0,0,.23-.07l1.41-.85a2.31,2.31,0,0,0,1.12-2V62.94A.45.45,0,0,0,438.65,62.49Z"/><path class="cls-3" d="M314.36,60.38l-1.13-.12a.3.3,0,0,1-.25-.21,5,5,0,0,0-.36-.86.29.29,0,0,1,0-.32l.71-.88a.29.29,0,0,0,0-.4l-1.25-1.25a.3.3,0,0,0-.39,0l-.89.71a.29.29,0,0,1-.32,0,5,5,0,0,0-.86-.36.29.29,0,0,1-.2-.25l-.12-1.13a.29.29,0,0,0-.29-.26h-1.78a.3.3,0,0,0-.3.26l-.12,1.13a.3.3,0,0,1-.21.26,4.9,4.9,0,0,0-.86.36.31.31,0,0,1-.32,0l-.88-.71a.28.28,0,0,0-.39,0l-1.25,1.25a.29.29,0,0,0,0,.39l.72.89a.31.31,0,0,1,0,.32,5.33,5.33,0,0,0-.37.85.29.29,0,0,1-.24.21l-1.13.12a.29.29,0,0,0-.27.29v1.78a.29.29,0,0,0,.27.29l1.13.13a.28.28,0,0,1,.24.2,5.87,5.87,0,0,0,.37.86.31.31,0,0,1,0,.32l-.72.89a.29.29,0,0,0,0,.39l1.25,1.26a.32.32,0,0,0,.4,0l.88-.71a.29.29,0,0,1,.32,0,5.24,5.24,0,0,0,.85.35.28.28,0,0,1,.2.25l.13,1.13a.28.28,0,0,0,.29.26H309a.29.29,0,0,0,.29-.26l.12-1.13a.3.3,0,0,1,.21-.25,5.07,5.07,0,0,0,.86-.37.29.29,0,0,1,.32,0l.89.72a.28.28,0,0,0,.39,0l1.26-1.26a.29.29,0,0,0,0-.38l-.71-.89a.27.27,0,0,1,0-.32,6,6,0,0,0,.36-.86.28.28,0,0,1,.25-.2l1.12-.12a.3.3,0,0,0,.27-.29V60.67A.29.29,0,0,0,314.36,60.38Zm-6.23,3.85a2.67,2.67,0,1,1,2.66-2.68h0A2.67,2.67,0,0,1,308.13,64.23Z"/><path class="cls-3" d="M555.91,111.23a4.42,4.42,0,0,0-4.42,4.43v.07a3.68,3.68,0,0,0-2,3.33,3.76,3.76,0,0,0,3.75,3.75h9.19a3.43,3.43,0,0,0,3.4-3.41,3.49,3.49,0,0,0-2.12-3.19,1.77,1.77,0,0,0,.08-.55,2.35,2.35,0,0,0-2.38-2.38,2.18,2.18,0,0,0-1.45.47,4.42,4.42,0,0,0-4-2.52Z"/><path class="cls-3" d="M555.91,165.58a4.42,4.42,0,0,0-4.42,4.42v.07a3.68,3.68,0,0,0-2,3.33,3.76,3.76,0,0,0,3.75,3.75h9.19a3.43,3.43,0,0,0,3.4-3.4,3.51,3.51,0,0,0-2.12-3.2,1.73,1.73,0,0,0,.08-.55,2.35,2.35,0,0,0-2.38-2.38,2.18,2.18,0,0,0-1.45.47,4.41,4.41,0,0,0-4-2.51Z"/><path class="cls-3" d="M45.1,42.57a2.12,2.12,0,0,0,1.09.31c.62,0,1-.33,1-.81s-.26-.69-.89-.94S45,40.46,45,39.8a1.36,1.36,0,0,1,1.53-1.28,2.13,2.13,0,0,1,1,.23l-.17.49a1.92,1.92,0,0,0-.89-.22c-.65,0-.89.38-.89.71s.28.65.94.91,1.2.69,1.2,1.38-.54,1.36-1.65,1.36a2.42,2.42,0,0,1-1.21-.3Z"/><path class="cls-3" d="M52.67,40.9a2.21,2.21,0,0,1-2.2,2.49A2.17,2.17,0,0,1,48.35,41a2.24,2.24,0,0,1,2.19-2.47A2.15,2.15,0,0,1,52.67,40.9ZM49,41c0,1,.55,1.91,1.51,1.91S52,42,52,40.93,51.53,39,50.52,39,49,39.94,49,41Z"/><path class="cls-3" d="M54.06,38.59v2.8c0,1,.47,1.5,1.1,1.5s1.15-.46,1.15-1.5v-2.8h.62v2.75c0,1.45-.76,2-1.79,2s-1.69-.55-1.69-2V38.59Z"/><path class="cls-3" d="M58,38.65a6.71,6.71,0,0,1,1.17-.09,2,2,0,0,1,1.37.38,1.17,1.17,0,0,1,.37.9A1.23,1.23,0,0,1,60,41v0a1.2,1.2,0,0,1,.69,1,7.48,7.48,0,0,0,.37,1.29h-.63a6.3,6.3,0,0,1-.32-1.12c-.14-.66-.39-.9-.94-.92h-.58v2H58Zm.61,2.16h.63c.65,0,1.06-.36,1.06-.9S59.84,39,59.2,39a2.55,2.55,0,0,0-.61,0Z"/><path class="cls-3" d="M65.07,43.16a3.06,3.06,0,0,1-1.25.22A2.2,2.2,0,0,1,61.49,41,2.35,2.35,0,0,1,64,38.52a2.47,2.47,0,0,1,1.12.21l-.15.49A2.25,2.25,0,0,0,64,39,1.75,1.75,0,0,0,62.13,41,1.72,1.72,0,0,0,64,42.87a2.56,2.56,0,0,0,1-.19Z"/><path class="cls-3" d="M68.27,41.1H66.44v1.7h2v.51H65.83V38.59h2.55v.51H66.44v1.5h1.83Z"/><path class="cls-3" d="M70.88,43.31l.18-1.37h-.57v-.41h.63l.14-1h-.61V40.1h.67l.18-1.34h.41l-.18,1.34h.73l.18-1.34h.42l-.18,1.34h.57v.41h-.63l-.13,1h.6v.41h-.66l-.18,1.37H72l.18-1.37h-.73l-.18,1.37Zm1.39-1.78.13-1h-.72l-.14,1Z"/><path class="cls-3" d="M75.36,39.33h0l-.79.43-.12-.47,1-.53H76v4.55h-.59Z"/><path class="cls-3" d="M45.1,99a2.12,2.12,0,0,0,1.09.31c.62,0,1-.33,1-.81s-.26-.69-.89-.94S45,96.84,45,96.17a1.36,1.36,0,0,1,1.53-1.28,2.25,2.25,0,0,1,1,.23l-.17.5a1.92,1.92,0,0,0-.89-.22c-.65,0-.89.38-.89.71s.28.65.94.91,1.2.69,1.2,1.38-.54,1.36-1.65,1.36a2.42,2.42,0,0,1-1.21-.3Z"/><path class="cls-3" d="M52.67,97.28a2.21,2.21,0,0,1-2.2,2.49,2.17,2.17,0,0,1-2.12-2.4,2.24,2.24,0,0,1,2.19-2.48A2.16,2.16,0,0,1,52.67,97.28ZM49,97.36c0,1,.55,1.91,1.51,1.91s1.51-.89,1.51-2-.49-1.92-1.5-1.92S49,96.32,49,97.36Z"/><path class="cls-3" d="M54.06,95v2.79c0,1.06.47,1.51,1.1,1.51s1.15-.46,1.15-1.51V95h.62v2.75c0,1.45-.76,2-1.79,2s-1.69-.56-1.69-2V95Z"/><path class="cls-3" d="M58,95a6.71,6.71,0,0,1,1.17-.09,1.94,1.94,0,0,1,1.37.38,1.17,1.17,0,0,1,.37.9,1.24,1.24,0,0,1-.89,1.2v0a1.18,1.18,0,0,1,.69,1,7.79,7.79,0,0,0,.37,1.29h-.63a6.23,6.23,0,0,1-.32-1.13c-.14-.65-.39-.89-.94-.91h-.58v2H58Zm.61,2.15h.63c.65,0,1.06-.35,1.06-.89s-.44-.88-1.08-.89a2.4,2.4,0,0,0-.61.06Z"/><path class="cls-3" d="M65.07,99.54a3.06,3.06,0,0,1-1.25.22,2.2,2.2,0,0,1-2.33-2.39A2.35,2.35,0,0,1,64,94.89a2.62,2.62,0,0,1,1.12.21l-.15.5a2.24,2.24,0,0,0-1-.2,1.76,1.76,0,0,0-1.85,1.95A1.72,1.72,0,0,0,64,99.25a2.38,2.38,0,0,0,1-.2Z"/><path class="cls-3" d="M68.27,97.48H66.44v1.7h2v.51H65.83V95h2.55v.51H66.44V97h1.83Z"/><path class="cls-3" d="M70.88,99.69l.18-1.37h-.57V97.9h.63l.14-1h-.61v-.41h.67l.18-1.34h.41l-.18,1.34h.73l.18-1.34h.42l-.18,1.34h.57v.41h-.63l-.13,1h.6v.42h-.66l-.18,1.37H72l.18-1.37h-.73l-.18,1.37Zm1.39-1.79.13-1h-.72l-.14,1Z"/><path class="cls-3" d="M74,99.69v-.38l.48-.47c1.17-1.1,1.69-1.69,1.7-2.38a.82.82,0,0,0-.91-.89,1.51,1.51,0,0,0-1,.39l-.2-.44a2.06,2.06,0,0,1,1.29-.46,1.28,1.28,0,0,1,1.39,1.33c0,.84-.6,1.51-1.56,2.44l-.37.34h2.05v.51Z"/><circle class="cls-2" cx="165.13" cy="61.55" r="12.39"/><circle class="cls-2" cx="205.8" cy="61.55" r="12.39"/><circle class="cls-2" cx="165.82" cy="117.02" r="12.39"/><circle class="cls-2" cx="205.8" cy="117.02" r="12.39"/><path class="cls-3" d="M170.73,59.93a.59.59,0,0,0,.63-.63V56.81a.59.59,0,0,0-.63-.62H159.52a.59.59,0,0,0-.62.62V59.3a.59.59,0,0,0,.62.63h5v1.24h-5a.59.59,0,0,0-.62.63v2.49a.59.59,0,0,0,.62.62h5v1.25h-.62v.62h-5V68h5v.62h2.49V68h5V66.78h-5v-.62h-.62V64.91h5a.59.59,0,0,0,.63-.62V61.8a.59.59,0,0,0-.63-.63h-5V59.93Zm-1.87-2.49h1.25v1.24h-1.25Zm-2.49,0h1.25v1.24h-1.25Zm-1.24,6.23h-1.25V62.42h1.25Zm0-5h-1.25V57.44h1.25Zm3.73,3.74h1.25v1.25h-1.25Zm-2.49,0h1.25v1.25h-1.25Z"/><path class="cls-3" d="M171.43,114.53a.59.59,0,0,0,.62-.62v-2.5a.59.59,0,0,0-.62-.62H160.21a.59.59,0,0,0-.62.62v2.5a.59.59,0,0,0,.62.62h5v1.25h-5a.58.58,0,0,0-.62.62v2.49a.59.59,0,0,0,.62.62h5v1.25h-.63v.62h-5v1.25h5v.62h2.49v-.62h5v-1.25h-5v-.62h-.62v-1.25h5a.59.59,0,0,0,.62-.62V116.4a.58.58,0,0,0-.62-.62h-5v-1.25ZM169.56,112h1.24v1.24h-1.24Zm-2.5,0h1.25v1.24h-1.25Zm-1.24,6.23h-1.25V117h1.25Zm0-5h-1.25V112h1.25Zm3.74,3.74h1.24v1.25h-1.24Zm-2.5,0h1.25v1.25h-1.25Z"/><path class="cls-3" d="M204.1,55.77a4.42,4.42,0,0,0-4.43,4.42v.07a3.69,3.69,0,0,0-2,3.34,3.76,3.76,0,0,0,3.74,3.74h9.2a3.42,3.42,0,0,0,3.4-3.4,3.5,3.5,0,0,0-2.13-3.2,1.71,1.71,0,0,0,.09-.55,2.36,2.36,0,0,0-2.39-2.38,2.16,2.16,0,0,0-1.44.48,4.42,4.42,0,0,0-4-2.52Zm1.7,3.74,2.45,3.07H207v3.06h-2.46V62.58h-1.22Z"/><path class="cls-3" d="M204.1,111.23a4.43,4.43,0,0,0-4.43,4.43v.07a3.69,3.69,0,0,0-2,3.33,3.76,3.76,0,0,0,3.74,3.75h9.2a3.43,3.43,0,0,0,3.4-3.41,3.48,3.48,0,0,0-2.13-3.19,1.76,1.76,0,0,0,.09-.55,2.36,2.36,0,0,0-2.39-2.38,2.15,2.15,0,0,0-1.44.47,4.43,4.43,0,0,0-4-2.52Zm1.7,3.75,2.45,3.06H207v3.07h-2.46V118h-1.22Z"/><path class="cls-3" d="M152.64,38.65a6.71,6.71,0,0,1,1.17-.09,2,2,0,0,1,1.37.38,1.17,1.17,0,0,1,.37.9,1.23,1.23,0,0,1-.89,1.2v0a1.2,1.2,0,0,1,.69,1,7.48,7.48,0,0,0,.37,1.29h-.63a5.51,5.51,0,0,1-.32-1.12c-.14-.66-.39-.9-.94-.92h-.58v2h-.61Zm.61,2.16h.62c.66,0,1.07-.36,1.07-.9s-.44-.88-1.09-.88a2.51,2.51,0,0,0-.6,0Z"/><path class="cls-3" d="M160.46,40.9a2.21,2.21,0,0,1-2.19,2.49,2.16,2.16,0,0,1-2.12-2.4,2.24,2.24,0,0,1,2.19-2.47A2.14,2.14,0,0,1,160.46,40.9ZM156.8,41c0,1,.55,1.91,1.51,1.91s1.51-.89,1.51-2S159.33,39,158.31,39,156.8,39.94,156.8,41Z"/><path class="cls-3" d="M161.86,38.59v2.8c0,1,.47,1.5,1.1,1.5s1.15-.46,1.15-1.5v-2.8h.62v2.75c0,1.45-.77,2-1.79,2s-1.7-.55-1.7-2V38.59Z"/><path class="cls-3" d="M166.68,39.11h-1.44v-.52h3.5v.52h-1.45v4.2h-.61Z"/><path class="cls-3" d="M169.87,38.59v4.72h-.61V38.59Z"/><path class="cls-3" d="M170.93,43.31V38.59h.67L173.11,41a14.38,14.38,0,0,1,.85,1.53h0c-.05-.63-.07-1.21-.07-1.94v-2h.58v4.72h-.62l-1.5-2.39a15.83,15.83,0,0,1-.88-1.58h0c0,.59,0,1.16,0,1.95v2Z"/><path class="cls-3" d="M179.13,43.1a4.31,4.31,0,0,1-1.45.26A2.21,2.21,0,0,1,175.26,41a2.37,2.37,0,0,1,2.55-2.44,2.87,2.87,0,0,1,1.18.22l-.15.5a2.43,2.43,0,0,0-1-.21,1.77,1.77,0,0,0-1.9,1.9,1.73,1.73,0,0,0,1.82,1.91,2,2,0,0,0,.82-.13V41.32h-1v-.49h1.55Z"/><path class="cls-3" d="M152.64,95a6.71,6.71,0,0,1,1.17-.09,1.94,1.94,0,0,1,1.37.38,1.17,1.17,0,0,1,.37.9,1.24,1.24,0,0,1-.89,1.2v0a1.18,1.18,0,0,1,.69,1,7.79,7.79,0,0,0,.37,1.29h-.63a5.47,5.47,0,0,1-.32-1.13c-.14-.65-.39-.89-.94-.91h-.58v2h-.61Zm.61,2.15h.62c.66,0,1.07-.35,1.07-.89s-.44-.88-1.09-.89a2.36,2.36,0,0,0-.6.06Z"/><path class="cls-3" d="M160.46,97.28a2.21,2.21,0,0,1-2.19,2.49,2.16,2.16,0,0,1-2.12-2.4,2.24,2.24,0,0,1,2.19-2.48A2.15,2.15,0,0,1,160.46,97.28Zm-3.66.08c0,1,.55,1.91,1.51,1.91s1.51-.89,1.51-2-.49-1.92-1.51-1.92S156.8,96.32,156.8,97.36Z"/><path class="cls-3" d="M161.86,95v2.79c0,1.06.47,1.51,1.1,1.51s1.15-.46,1.15-1.51V95h.62v2.75c0,1.45-.77,2-1.79,2s-1.7-.56-1.7-2V95Z"/><path class="cls-3" d="M166.68,95.49h-1.44V95h3.5v.52h-1.45v4.2h-.61Z"/><path class="cls-3" d="M169.87,95v4.72h-.61V95Z"/><path class="cls-3" d="M170.93,99.69V95h.67l1.51,2.39a14.38,14.38,0,0,1,.85,1.53h0c-.05-.63-.07-1.21-.07-2V95h.58v4.72h-.62l-1.5-2.39a15.83,15.83,0,0,1-.88-1.58h0c0,.59,0,1.16,0,1.94v2Z"/><path class="cls-3" d="M179.13,99.48a4.31,4.31,0,0,1-1.45.26,2.21,2.21,0,0,1-2.42-2.38,2.37,2.37,0,0,1,2.55-2.44,2.87,2.87,0,0,1,1.18.22l-.15.5a2.29,2.29,0,0,0-1-.21,1.77,1.77,0,0,0-1.9,1.9,1.73,1.73,0,0,0,1.82,1.91,2,2,0,0,0,.82-.13V97.7h-1v-.49h1.55Z"/><path class="cls-3" d="M197.69,39.92l.67,1.91c.11.31.2.59.27.87h0c.08-.28.18-.56.29-.87l.66-1.91h.64l-1.33,3.39h-.59L197,39.92Z"/><path class="cls-3" d="M200.84,38.65a9.7,9.7,0,0,1,1.3-.09,2.68,2.68,0,0,1,1.91.59,2.16,2.16,0,0,1,.66,1.69,2.48,2.48,0,0,1-.68,1.84,2.9,2.9,0,0,1-2.08.67c-.44,0-.8,0-1.11-.05Zm.61,4.18a3.71,3.71,0,0,0,.62,0,1.81,1.81,0,0,0,2-2A1.69,1.69,0,0,0,202.16,39a3.89,3.89,0,0,0-.71.06Z"/><path class="cls-3" d="M208.8,43.16a3,3,0,0,1-1.24.22A2.21,2.21,0,0,1,205.22,41a2.35,2.35,0,0,1,2.47-2.47,2.43,2.43,0,0,1,1.12.21l-.15.49a2.25,2.25,0,0,0-.95-.19A1.75,1.75,0,0,0,205.87,41a1.71,1.71,0,0,0,1.81,1.9,2.66,2.66,0,0,0,1-.19Z"/><path class="cls-3" d="M213.54,41.24c0-.66-.08-1.45-.07-2h0c-.16.55-.36,1.14-.6,1.79L212,43.28h-.46L210.8,41a19.08,19.08,0,0,1-.55-1.84h0c0,.59-.05,1.38-.1,2.09l-.12,2h-.58l.33-4.72h.77l.81,2.29c.19.58.36,1.09.48,1.58h0c.12-.47.28-1,.49-1.58l.84-2.29H214l.3,4.72h-.6Z"/><path class="cls-3" d="M197.69,96.3l.67,1.91a8.42,8.42,0,0,1,.27.86h0c.08-.28.18-.56.29-.86l.66-1.91h.64l-1.33,3.39h-.59L197,96.3Z"/><path class="cls-3" d="M200.84,95a9.7,9.7,0,0,1,1.3-.09,2.73,2.73,0,0,1,1.91.58,2.18,2.18,0,0,1,.66,1.7,2.44,2.44,0,0,1-.68,1.83,2.91,2.91,0,0,1-2.08.68c-.44,0-.8,0-1.11,0Zm.61,4.18a3.71,3.71,0,0,0,.62,0,1.82,1.82,0,0,0,2-2,1.69,1.69,0,0,0-1.92-1.82,3.89,3.89,0,0,0-.71.06Z"/><path class="cls-3" d="M208.8,99.54a3,3,0,0,1-1.24.22,2.21,2.21,0,0,1-2.34-2.39,2.35,2.35,0,0,1,2.47-2.48,2.58,2.58,0,0,1,1.12.21l-.15.5a2.24,2.24,0,0,0-.95-.2,1.75,1.75,0,0,0-1.84,1.95,1.71,1.71,0,0,0,1.81,1.9,2.47,2.47,0,0,0,1-.2Z"/><path class="cls-3" d="M213.54,97.62c0-.66-.08-1.45-.07-2h0c-.16.55-.36,1.14-.6,1.79L212,99.66h-.46l-.76-2.25a18.14,18.14,0,0,1-.55-1.83h0c0,.59-.05,1.38-.1,2.09l-.12,2h-.58l.33-4.72h.77l.81,2.28c.19.58.36,1.1.48,1.59h0c.12-.47.28-1,.49-1.59l.84-2.28H214l.3,4.72h-.6Z"/><path class="cls-3" d="M550.5,43.16a3,3,0,0,1-1.24.22A2.2,2.2,0,0,1,546.93,41a2.34,2.34,0,0,1,2.46-2.47,2.43,2.43,0,0,1,1.12.21l-.15.49a2.25,2.25,0,0,0-1-.19A1.75,1.75,0,0,0,547.57,41a1.72,1.72,0,0,0,1.81,1.9,2.62,2.62,0,0,0,1-.19Z"/><path class="cls-3" d="M551.27,38.65a9.66,9.66,0,0,1,1.29-.09,2.66,2.66,0,0,1,1.91.59,2.16,2.16,0,0,1,.67,1.69,2.52,2.52,0,0,1-.68,1.84,2.91,2.91,0,0,1-2.09.67c-.43,0-.8,0-1.1-.05Zm.61,4.18a3.58,3.58,0,0,0,.61,0,1.81,1.81,0,0,0,2-2A1.68,1.68,0,0,0,552.59,39a3.8,3.8,0,0,0-.71.06Z"/><path class="cls-3" d="M555.93,43.31V38.59h.66L558.11,41a12.63,12.63,0,0,1,.84,1.53h0c-.06-.63-.07-1.21-.07-1.94v-2h.57v4.72h-.62l-1.49-2.39a16,16,0,0,1-.89-1.58h0c0,.59,0,1.16,0,1.95v2Z"/><path class="cls-3" d="M562.14,43.31l.18-1.37h-.58v-.41h.64l.14-1h-.61V40.1h.67l.18-1.34h.41L563,40.1h.73l.18-1.34h.41l-.17,1.34h.57v.41h-.63l-.13,1h.6v.41h-.66l-.18,1.37h-.43l.19-1.37h-.73l-.18,1.37Zm1.39-1.78.13-1h-.72l-.14,1Z"/><path class="cls-3" d="M566.62,39.33h0l-.79.43-.12-.47,1-.53h.52v4.55h-.59Z"/><path class="cls-3" d="M550.5,99.54a3,3,0,0,1-1.24.22,2.2,2.2,0,0,1-2.33-2.39,2.35,2.35,0,0,1,2.46-2.48,2.58,2.58,0,0,1,1.12.21l-.15.5a2.24,2.24,0,0,0-1-.2,1.76,1.76,0,0,0-1.84,1.95,1.72,1.72,0,0,0,1.81,1.9,2.43,2.43,0,0,0,1-.2Z"/><path class="cls-3" d="M551.27,95a9.66,9.66,0,0,1,1.29-.09,2.71,2.71,0,0,1,1.91.58,2.19,2.19,0,0,1,.67,1.7,2.48,2.48,0,0,1-.68,1.83,2.92,2.92,0,0,1-2.09.68c-.43,0-.8,0-1.1,0Zm.61,4.18a3.58,3.58,0,0,0,.61,0,1.82,1.82,0,0,0,2-2,1.68,1.68,0,0,0-1.91-1.82,3.8,3.8,0,0,0-.71.06Z"/><path class="cls-3" d="M555.93,99.69V95h.66l1.52,2.39a12.63,12.63,0,0,1,.84,1.53h0c-.06-.63-.07-1.21-.07-2V95h.57v4.72h-.62l-1.49-2.39a16,16,0,0,1-.89-1.58h0c0,.59,0,1.16,0,1.94v2Z"/><path class="cls-3" d="M562.14,99.69l.18-1.37h-.58V97.9h.64l.14-1h-.61v-.41h.67l.18-1.34h.41L563,96.48h.73l.18-1.34h.41l-.17,1.34h.57v.41h-.63l-.13,1h.6v.42h-.66l-.18,1.37h-.43l.19-1.37h-.73l-.18,1.37Zm1.39-1.79.13-1h-.72l-.14,1Z"/><path class="cls-3" d="M565.28,99.69v-.38l.48-.47c1.17-1.1,1.69-1.69,1.7-2.38a.82.82,0,0,0-.91-.89,1.51,1.51,0,0,0-1,.39l-.2-.44a2,2,0,0,1,1.29-.46,1.28,1.28,0,0,1,1.39,1.33c0,.84-.61,1.51-1.56,2.44l-.37.34h2.05v.51Z"/><path class="cls-3" d="M550.5,153.81a2.85,2.85,0,0,1-1.24.23,2.2,2.2,0,0,1-2.33-2.39,2.35,2.35,0,0,1,2.46-2.48,2.58,2.58,0,0,1,1.12.21l-.15.5a2.24,2.24,0,0,0-1-.2,1.76,1.76,0,0,0-1.84,1.95,1.72,1.72,0,0,0,1.81,1.9,2.43,2.43,0,0,0,1-.2Z"/><path class="cls-3" d="M551.27,149.31a9.54,9.54,0,0,1,1.29-.1,2.71,2.71,0,0,1,1.91.59,2.19,2.19,0,0,1,.67,1.7,2.48,2.48,0,0,1-.68,1.83,2.92,2.92,0,0,1-2.09.68,8.55,8.55,0,0,1-1.1-.06Zm.61,4.17a3.44,3.44,0,0,0,.61,0,1.82,1.82,0,0,0,2-2,1.68,1.68,0,0,0-1.91-1.82,3.1,3.1,0,0,0-.71.06Z"/><path class="cls-3" d="M555.93,154v-4.72h.66l1.52,2.39a12.63,12.63,0,0,1,.84,1.53h0c-.06-.63-.07-1.2-.07-1.94v-2h.57V154h-.62l-1.49-2.4a14.81,14.81,0,0,1-.89-1.57h0c0,.6,0,1.17,0,1.95v2Z"/><path class="cls-3" d="M562.14,154l.18-1.37h-.58v-.42h.64l.14-1h-.61v-.42h.67l.18-1.33h.41l-.18,1.33h.73l.18-1.33h.41l-.17,1.33h.57v.42h-.63l-.13,1h.6v.42h-.66l-.18,1.37h-.43l.19-1.37h-.73l-.18,1.37Zm1.39-1.79.13-1h-.72l-.14,1Z"/><path class="cls-3" d="M565.28,154v-.38l.48-.47c1.17-1.11,1.69-1.69,1.7-2.38a.82.82,0,0,0-.91-.89,1.51,1.51,0,0,0-1,.39l-.2-.44a2,2,0,0,1,1.29-.46,1.28,1.28,0,0,1,1.39,1.32c0,.84-.61,1.52-1.56,2.45l-.37.33v0h2.05V154Z"/><path class="cls-3" d="M291.33,39.11h-1.44v-.52h3.5v.52h-1.45v4.2h-.61Z"/><path class="cls-3" d="M293.91,38.65a6.71,6.71,0,0,1,1.17-.09,2,2,0,0,1,1.37.38,1.2,1.2,0,0,1,.37.9,1.24,1.24,0,0,1-.89,1.2v0a1.2,1.2,0,0,1,.69,1,7.81,7.81,0,0,0,.36,1.29h-.63a6.64,6.64,0,0,1-.31-1.12c-.14-.66-.39-.9-1-.92h-.57v2h-.61Zm.61,2.16h.62c.65,0,1.07-.36,1.07-.9s-.44-.88-1.09-.88a2.51,2.51,0,0,0-.6,0Z"/><path class="cls-3" d="M298.47,41.83,298,43.31h-.63L299,38.59h.73l1.61,4.72h-.65l-.5-1.48Zm1.55-.48L299.56,40c-.11-.31-.18-.59-.25-.86h0c-.07.28-.15.57-.24.86l-.46,1.36Z"/><path class="cls-3" d="M302,43.31V38.59h.67L304.17,41a12.8,12.8,0,0,1,.85,1.53h0c0-.63-.07-1.21-.07-1.94v-2h.58v4.72h-.62l-1.5-2.39a15.83,15.83,0,0,1-.88-1.58h0c0,.59.05,1.16.05,1.95v2Z"/><path class="cls-3" d="M306.52,42.57a2.12,2.12,0,0,0,1.09.31c.62,0,1-.33,1-.81s-.26-.69-.89-.94-1.25-.67-1.25-1.33A1.36,1.36,0,0,1,308,38.52a2.13,2.13,0,0,1,1,.23l-.17.49A1.92,1.92,0,0,0,308,39c-.65,0-.89.38-.89.71s.28.65.94.91,1.2.69,1.2,1.38-.54,1.36-1.65,1.36a2.42,2.42,0,0,1-1.21-.3Z"/><path class="cls-3" d="M313.35,43.16a3.06,3.06,0,0,1-1.25.22A2.2,2.2,0,0,1,309.77,41a2.35,2.35,0,0,1,2.47-2.47,2.47,2.47,0,0,1,1.12.21l-.15.49a2.25,2.25,0,0,0-.95-.19A1.75,1.75,0,0,0,310.42,41a1.71,1.71,0,0,0,1.81,1.9,2.56,2.56,0,0,0,1-.19Z"/><path class="cls-3" d="M318,40.9a2.21,2.21,0,0,1-2.19,2.49,2.17,2.17,0,0,1-2.13-2.4,2.25,2.25,0,0,1,2.2-2.47A2.15,2.15,0,0,1,318,40.9Zm-3.66.08c0,1,.54,1.91,1.5,1.91s1.51-.89,1.51-2-.49-1.92-1.5-1.92S314.34,39.94,314.34,41Z"/><path class="cls-3" d="M318.79,38.65a9.66,9.66,0,0,1,1.29-.09,2.66,2.66,0,0,1,1.91.59,2.16,2.16,0,0,1,.67,1.69,2.52,2.52,0,0,1-.68,1.84,2.91,2.91,0,0,1-2.09.67c-.43,0-.79,0-1.1-.05Zm.61,4.18a3.58,3.58,0,0,0,.61,0,1.81,1.81,0,0,0,2-2A1.68,1.68,0,0,0,320.11,39a3.89,3.89,0,0,0-.71.06Z"/><path class="cls-3" d="M325.89,41.1h-1.83v1.7h2v.51h-2.65V38.59H326v.51h-1.94v1.5h1.83Z"/><path class="cls-3" d="M427.19,38.65a6.81,6.81,0,0,1,1.16-.09,2,2,0,0,1,1.33.39,1.26,1.26,0,0,1,.41,1,1.4,1.4,0,0,1-.36,1,2,2,0,0,1-1.45.51,1.91,1.91,0,0,1-.49,0v1.89h-.6Zm.6,2.27a1.91,1.91,0,0,0,.51,0c.73,0,1.18-.35,1.18-1S429,39,428.37,39a2.49,2.49,0,0,0-.58.05Z"/><path class="cls-3" d="M430.91,38.65a6.94,6.94,0,0,1,1.17-.09,1.94,1.94,0,0,1,1.32.39,1.27,1.27,0,0,1,.42,1,1.41,1.41,0,0,1-.37,1,2,2,0,0,1-1.44.51,1.87,1.87,0,0,1-.49,0v1.89h-.61Zm.61,2.27a1.79,1.79,0,0,0,.5,0c.74,0,1.19-.35,1.19-1s-.44-.92-1.12-.92a2.39,2.39,0,0,0-.57.05Z"/><path class="cls-3" d="M434.55,42.57a2.12,2.12,0,0,0,1.09.31c.63,0,1-.33,1-.81s-.25-.69-.89-.94-1.25-.67-1.25-1.33A1.36,1.36,0,0,1,436,38.52a2.13,2.13,0,0,1,1,.23l-.17.49A1.88,1.88,0,0,0,436,39c-.65,0-.89.38-.89.71s.29.65.94.91,1.2.69,1.2,1.38-.54,1.36-1.65,1.36a2.45,2.45,0,0,1-1.21-.3Z"/><text class="cls-6" transform="translate(37.41 20.91)">PROVIDERS</text><text class="cls-6" transform="translate(162.22 20.91)">INGES<tspan class="cls-7" x="24.89" y="0">T</tspan><tspan x="29.64" y="0">OIN</tspan></text><text class="cls-6" transform="translate(286.57 20.91)">ENCODING</text><text class="cls-6" transform="translate(407.43 20.91)">PUBLISHING</text><text class="cls-6" transform="translate(529.17 20.91)">DISTRIBUTION</text></svg>