<svg xmlns="http://www.w3.org/2000/svg" viewBox="0 0 16 16" width="16" height="16"><g class="nc-icon-wrapper"><circle data-color="color-2" cx="8" cy="8" r="3"/> <path d="M2,8c0-1.6,0.6-3.1,1.8-4.3c0.4-0.4,0.4-1,0-1.4c-0.4-0.4-1-0.4-1.4,0C0.9,3.8,0,5.8,0,8 c0,2.2,0.9,4.2,2.4,5.7C2.6,13.9,2.9,14,3.1,14c0.3,0,0.5-0.1,0.7-0.3c0.4-0.4,0.4-1,0-1.4C2.6,11.1,2,9.6,2,8z"/> <path d="M13.6,2.3c-0.4-0.4-1-0.4-1.4,0c-0.4,0.4-0.4,1,0,1.4C13.4,4.9,14,6.4,14,8c0,1.6-0.6,3.1-1.8,4.3 c-0.4,0.4-0.4,1,0,1.4c0.2,0.2,0.5,0.3,0.7,0.3c0.3,0,0.5-0.1,0.7-0.3C15.1,12.2,16,10.2,16,8C16,5.8,15.1,3.8,13.6,2.3z"/></g></svg>