<svg xmlns="http://www.w3.org/2000/svg" viewBox="0 0 16 16" width="16" height="16"><g class="nc-icon-wrapper"><circle data-color="color-2" cx="13" cy="2" r="2"/> <path d="M15.7070312,5.2929688c-0.390625-0.390625-1.0234375-0.390625-1.4140625,0L13,6.5859375L8.7070312,2.2929688 c-0.2685547-0.269043-0.6650391-0.3623047-1.0234375-0.2416992l-3,1C4.159668,3.2260742,3.8764648,3.7924805,4.0512695,4.3164062 S4.7895508,5.125,5.3164062,4.9487305L7.7299805,4.144043l0.9013062,0.9013062L6.65625,7.0200195 C6.1728516,7.5039062,5.9345703,8.171875,6.0019531,8.8525391c0.0678711,0.6796875,0.4326172,1.2871094,1.0820312,1.7143555 l1.4741211,0.7929688l-1.3901367,2.0854492c-0.3061523,0.4594727-0.1821289,1.0805664,0.2773438,1.3867188 c0.4579263,0.3057213,1.0798683,0.1825438,1.3867188-0.2773438l2-3c0.3269739-0.4904613,0.160408-1.1557178-0.3583984-1.4355469 L8.1118164,8.8540039C7.9670744,8.7572422,7.9502888,8.554594,8.0708008,8.434082l1.9746094-1.9746094l2.2475586,2.2475586 c0.3906364,0.3906364,1.0234261,0.3906364,1.4140625,0l2-2C16.0976562,6.3164062,16.0976562,5.6835938,15.7070312,5.2929688z"/> <path d="M4.2929688,10.2929688l-4,4c-0.390625,0.390625-0.390625,1.0234375,0,1.4140625 C0.4882812,15.9023438,0.7441406,16,1,16s0.5117188-0.0976562,0.7070312-0.2929688l4-4 c0.390625-0.390625,0.390625-1.0234375,0-1.4140625S4.6835938,9.9023438,4.2929688,10.2929688z"/></g></svg>