<svg id="Layer_1" data-name="Layer 1" xmlns="http://www.w3.org/2000/svg" viewBox="0 0 16 16"><defs><style>.cls-1{fill:#010101;}</style></defs><path class="cls-1" d="M13.47,5.58H9.29L12.45,3a1.47,1.47,0,0,0,1.48-1.47,1.48,1.48,0,0,0-3-.05,1.57,1.57,0,0,0,.16.67l-3.48,3L4.9,2.74A1.48,1.48,0,1,0,3,3.62a1.19,1.19,0,0,0,.52.09h.17L6,5.61H2.47A1.57,1.57,0,0,0,1,7.16H1v7.3A1.57,1.57,0,0,0,2.47,16h11A1.55,1.55,0,0,0,15,14.43h0V7.13A1.57,1.57,0,0,0,13.47,5.58Zm-4.1,5.69L7.49,13.15a.68.68,0,0,1-1,0l0,0a.64.64,0,0,1-.19-.51V8.9A.67.67,0,0,1,7,8.22H7a.67.67,0,0,1,.47.19L9.37,10.3a.67.67,0,0,1,0,.95h0Z"/></svg>
