<svg xmlns="http://www.w3.org/2000/svg" viewBox="0 0 16 16" width="16" height="16"><g class="nc-icon-wrapper"><path d="M13.5,5.6H9.31L12.47,3A1.48,1.48,0,1,0,11,1.48a1.44,1.44,0,0,0,.16.67l-3.48,3L4.93,2.76A1.48,1.48,0,1,0,3,3.64a1.17,1.17,0,0,0,.52.09h.17L6,5.63H2.5A1.56,1.56,0,0,0,1,7.18H1v7.3A1.56,1.56,0,0,0,2.5,16h11a1.55,1.55,0,0,0,1.55-1.55h0V7.15A1.56,1.56,0,0,0,13.5,5.6ZM9.4,11.29,7.52,13.17a.68.68,0,0,1-1,0,.65.65,0,0,1-.2-.51V8.92a.68.68,0,0,1,.7-.68.7.7,0,0,1,.47.19L9.4,10.32a.67.67,0,0,1,0,.95Z"/></g></svg>
