<svg xmlns="http://www.w3.org/2000/svg" viewBox="0 0 16 16" width="16" height="16"><g class="nc-icon-wrapper"><path d="M15.91,12.7a2.63,2.63,0,0,0-5-.37H4.79A1.65,1.65,0,0,1,4.79,9h.8A2.62,2.62,0,0,0,8,10.64a2.34,2.34,0,0,0,.64-.08A2.62,2.62,0,0,0,10.43,9h.79a3.71,3.71,0,0,0,0-7.42H5.07A2.63,2.63,0,0,0,2.65,0h0A2.39,2.39,0,0,0,2,.1,2.65,2.65,0,0,0,.37,1.31a2.69,2.69,0,0,0-.28,2,2.63,2.63,0,0,0,2.55,2A2.39,2.39,0,0,0,3.3,5.2,2.62,2.62,0,0,0,5.07,3.68h6.15a1.65,1.65,0,0,1,0,3.3h-.79A2.64,2.64,0,0,0,8,5.37a2.82,2.82,0,0,0-.65.08A2.64,2.64,0,0,0,5.59,7h-.8a3.71,3.71,0,0,0,0,7.41H11A2.62,2.62,0,0,0,13.37,16a3,3,0,0,0,.66-.08,2.62,2.62,0,0,0,1.88-3.21Zm-1.72.66a.83.83,0,1,1-.83-.82A.83.83,0,0,1,14.19,13.36ZM8.83,8A.83.83,0,1,1,8,7.18.82.82,0,0,1,8.83,8Zm-7-5.36a.83.83,0,1,1,.82.83A.82.82,0,0,1,1.83,2.65Z"/></g></svg>
